# xmcd
#
# Track frame offsets:
#	150
#	18967
#	37322
#	51414
#	68961
#	86809
#	108669
#	126014
#	145779
#	160228
#	181765
#
# Disc length: 2663 seconds
#
# Revision: 1
# Processed by: cddbd v1.5.2PL0 Copyright (c) Steve Scherf et al.
# Submitted via: audiograbber 1.83.01
#
DISCID=9b0a650b
DTITLE=Mala and Fyrmoon - On The Run
DYEAR=2014
DGENRE=Bluegrass
TTITLE0=Now
TTITLE1=On The Run
TTITLE2=The Glandy Cross
TTITLE3=Don´t Forget My Name
TTITLE4=Green Light Of May
TTITLE5=Still Falling (From Cloud Nine)
TTITLE6=Tears On The Windshield
TTITLE7=Slowly
TTITLE8=I Want Somebody Just Like Me
TTITLE9=There's A Cowboy
TTITLE10=If I Needed You
EXTD=
EXTT0=
EXTT1=
EXTT2=
EXTT3=
EXTT4=
EXTT5=
EXTT6=
EXTT7=
EXTT8=
EXTT9=
EXTT10=
PLAYORDER=
